<svg xmlns="http://www.w3.org/2000/svg" width="21.997" height="16.501" viewBox="0 0 21.997 16.501">
  <path id="Icon_ionic-logo-youtube" data-name="Icon ionic-logo-youtube" d="M21.854,8.144a3.34,3.34,0,0,0-3.18-3.489c-2.38-.112-4.808-.155-7.287-.155h-.773c-2.475,0-4.907.043-7.287.155A3.347,3.347,0,0,0,.15,8.152C.043,9.682,0,11.212,0,12.741S.043,15.8.146,17.335a3.351,3.351,0,0,0,3.175,3.5C5.822,20.953,8.387,21,11,21s5.169-.043,7.674-.163a3.352,3.352,0,0,0,3.18-3.5c.1-1.534.15-3.064.146-4.6S21.957,9.678,21.854,8.144ZM8.894,16.957V8.513l6.23,4.22Z" transform="translate(0 -4.5)" fill="#fff"/>
</svg>
