<svg xmlns="http://www.w3.org/2000/svg" width="22" height="17.868" viewBox="0 0 22 17.868">
  <path id="Icon_awesome-twitter" data-name="Icon awesome-twitter" d="M19.739,7.834c.014.2.014.391.014.586A12.741,12.741,0,0,1,6.924,21.249,12.742,12.742,0,0,1,0,19.225a9.328,9.328,0,0,0,1.089.056,9.03,9.03,0,0,0,5.6-1.926,4.517,4.517,0,0,1-4.216-3.127,5.686,5.686,0,0,0,.852.07,4.769,4.769,0,0,0,1.187-.154A4.509,4.509,0,0,1,.893,9.718V9.662a4.541,4.541,0,0,0,2.038.572,4.516,4.516,0,0,1-1.4-6.03,12.816,12.816,0,0,0,9.3,4.718,5.09,5.09,0,0,1-.112-1.033,4.513,4.513,0,0,1,7.8-3.085,8.877,8.877,0,0,0,2.862-1.089A4.5,4.5,0,0,1,19.4,6.2,9.039,9.039,0,0,0,22,5.5a9.692,9.692,0,0,1-2.261,2.331Z" transform="translate(0 -3.381)" fill="#fff"/>
</svg>
