<svg xmlns="http://www.w3.org/2000/svg" width="39.016" height="27.433" viewBox="0 0 39.016 27.433">
  <path id="Icon_awesome-youtube" data-name="Icon awesome-youtube" d="M39.251,8.792A4.9,4.9,0,0,0,35.8,5.321C32.759,4.5,20.558,4.5,20.558,4.5s-12.2,0-15.243.821A4.9,4.9,0,0,0,1.865,8.792c-.815,3.062-.815,9.452-.815,9.452s0,6.39.815,9.452a4.829,4.829,0,0,0,3.449,3.416c3.043.821,15.243.821,15.243.821s12.2,0,15.243-.821A4.829,4.829,0,0,0,39.251,27.7c.815-3.062.815-9.452.815-9.452s0-6.39-.815-9.452ZM16.568,24.046v-11.6l10.2,5.8-10.2,5.8Z" transform="translate(-1.05 -4.5)" fill="#fff" opacity="0.5"/>
</svg>
