<svg xmlns="http://www.w3.org/2000/svg" width="32.023" height="32.016" viewBox="0 0 32.023 32.016">
  <path id="Icon_awesome-instagram" data-name="Icon awesome-instagram" d="M16.01,10.037a8.209,8.209,0,1,0,8.209,8.209A8.2,8.2,0,0,0,16.01,10.037Zm0,13.545a5.337,5.337,0,1,1,5.337-5.337,5.346,5.346,0,0,1-5.337,5.337ZM26.469,9.7a1.915,1.915,0,1,1-1.915-1.915A1.91,1.91,0,0,1,26.469,9.7Zm5.437,1.943a9.475,9.475,0,0,0-2.586-6.708A9.537,9.537,0,0,0,22.611,2.35C19.968,2.2,12.045,2.2,9.4,2.35A9.524,9.524,0,0,0,2.693,4.929,9.506,9.506,0,0,0,.107,11.638c-.15,2.643-.15,10.566,0,13.209a9.475,9.475,0,0,0,2.586,6.708A9.549,9.549,0,0,0,9.4,34.142c2.643.15,10.566.15,13.209,0a9.475,9.475,0,0,0,6.708-2.586,9.537,9.537,0,0,0,2.586-6.708c.15-2.643.15-10.559,0-13.2ZM28.491,27.683a5.4,5.4,0,0,1-3.043,3.043c-2.108.836-7.108.643-9.437.643s-7.337.186-9.437-.643a5.4,5.4,0,0,1-3.043-3.043c-.836-2.108-.643-7.108-.643-9.437s-.186-7.337.643-9.437A5.4,5.4,0,0,1,6.573,5.765c2.108-.836,7.108-.643,9.437-.643s7.337-.186,9.437.643a5.4,5.4,0,0,1,3.043,3.043c.836,2.108.643,7.108.643,9.437S29.327,25.583,28.491,27.683Z" transform="translate(0.005 -2.238)" fill="#fff" opacity="0.5"/>
</svg>
