<svg xmlns="http://www.w3.org/2000/svg" width="34.482" height="34.482" viewBox="0 0 34.482 34.482">
  <path id="Icon_awesome-expand" data-name="Icon awesome-expand" d="M0,13.641V4.1A1.843,1.843,0,0,1,1.847,2.25h9.544a.926.926,0,0,1,.924.924V6.252a.926.926,0,0,1-.924.924H4.926v6.465A.926.926,0,0,1,4,14.565H.924A.926.926,0,0,1,0,13.641ZM22.167,3.174V6.252a.926.926,0,0,0,.924.924h6.465v6.465a.926.926,0,0,0,.924.924h3.079a.926.926,0,0,0,.924-.924V4.1A1.843,1.843,0,0,0,32.634,2.25H23.09A.926.926,0,0,0,22.167,3.174ZM33.558,24.417H30.479a.926.926,0,0,0-.924.924v6.465H23.09a.926.926,0,0,0-.924.924v3.079a.926.926,0,0,0,.924.924h9.544a1.843,1.843,0,0,0,1.847-1.847V25.34A.926.926,0,0,0,33.558,24.417ZM12.315,35.808V32.729a.926.926,0,0,0-.924-.924H4.926V25.34A.926.926,0,0,0,4,24.417H.924A.926.926,0,0,0,0,25.34v9.544a1.843,1.843,0,0,0,1.847,1.847h9.544A.926.926,0,0,0,12.315,35.808Z" transform="translate(0 -2.25)" fill="#f6cd15"/>
</svg>
